<?xml version="1.0" encoding="UTF-8" standalone="no"?>
<!DOCTYPE svg PUBLIC "-//W3C//DTD SVG 1.1//EN"
 "http://www.w3.org/Graphics/SVG/1.1/DTD/svg11.dtd">
<!-- Generated by graphviz version 2.48.0 (20210717.1556)
 -->
<!-- Title: workflow Pages: 1 -->
<svg width="1838pt" height="424pt"
 viewBox="0.00 0.00 1837.68 423.50" xmlns="http://www.w3.org/2000/svg" xmlns:xlink="http://www.w3.org/1999/xlink">
<g id="graph0" class="graph" transform="scale(1 1) rotate(0) translate(4 419.5)">
<title>workflow</title>
<polygon fill="white" stroke="transparent" points="-4,4 -4,-419.5 1833.68,-419.5 1833.68,4 -4,4"/>
<!-- place_8f02cf4ddc965c8ad367f1b1a0368a8920f5db3d -->
<g id="node1" class="node">
<title>place_8f02cf4ddc965c8ad367f1b1a0368a8920f5db3d</title>
<ellipse fill="lightblue" stroke="#333333" cx="38.73" cy="-171" rx="38.96" ry="38.96"/>
<text text-anchor="middle" x="38.73" y="-168.8" font-family="Arial" font-size="9.00">NEEDS_DATA</text>
</g>
<!-- transition_b6589fc6ab0dc82cf12099d1c2d40ab994e8410c -->
<g id="node11" class="node">
<title>transition_b6589fc6ab0dc82cf12099d1c2d40ab994e8410c</title>
<polygon fill="none" stroke="#333333" points="185.46,-239 113.46,-239 113.46,-167 185.46,-167 185.46,-239"/>
<text text-anchor="middle" x="149.46" y="-200.8" font-family="Arial" font-size="9.00">TO_NEW</text>
</g>
<!-- place_8f02cf4ddc965c8ad367f1b1a0368a8920f5db3d&#45;&gt;transition_b6589fc6ab0dc82cf12099d1c2d40ab994e8410c -->
<g id="edge1" class="edge">
<title>place_8f02cf4ddc965c8ad367f1b1a0368a8920f5db3d&#45;&gt;transition_b6589fc6ab0dc82cf12099d1c2d40ab994e8410c</title>
<path fill="none" stroke="#333333" d="M76.24,-181.74C86.52,-184.77 97.77,-188.08 108.26,-191.17"/>
<polygon fill="#333333" stroke="#333333" points="108.05,-192.93 113.34,-192.66 109.04,-189.57 108.05,-192.93"/>
</g>
<!-- place_c72633f673ef54769f56bbaf78d2baf4858bf7c3 -->
<g id="node2" class="node">
<title>place_c72633f673ef54769f56bbaf78d2baf4858bf7c3</title>
<ellipse fill="none" stroke="#333333" cx="494.46" cy="-240" rx="36" ry="36"/>
<text text-anchor="middle" x="494.46" y="-237.8" font-family="Arial" font-size="9.00">ACTIVE</text>
</g>
<!-- transition_77de68daecd823babbb58edb1c8e14d7106e83bb -->
<g id="node14" class="node">
<title>transition_77de68daecd823babbb58edb1c8e14d7106e83bb</title>
<polygon fill="none" stroke="#333333" points="668.46,-291 566.46,-291 566.46,-189 668.46,-189 668.46,-291"/>
<text text-anchor="middle" x="617.46" y="-237.8" font-family="Arial" font-size="9.00">TO_REACHED_OUT</text>
</g>
<!-- place_c72633f673ef54769f56bbaf78d2baf4858bf7c3&#45;&gt;transition_77de68daecd823babbb58edb1c8e14d7106e83bb -->
<g id="edge7" class="edge">
<title>place_c72633f673ef54769f56bbaf78d2baf4858bf7c3&#45;&gt;transition_77de68daecd823babbb58edb1c8e14d7106e83bb</title>
<path fill="none" stroke="#333333" d="M530.78,-240C540.25,-240 550.73,-240 561.01,-240"/>
<polygon fill="#333333" stroke="#333333" points="561.03,-241.75 566.03,-240 561.03,-238.25 561.03,-241.75"/>
</g>
<!-- place_073afc98bdd09cb2a4d2bd868a900fcbf6e25550 -->
<g id="node3" class="node">
<title>place_073afc98bdd09cb2a4d2bd868a900fcbf6e25550</title>
<ellipse fill="none" stroke="#333333" cx="993.46" cy="-240" rx="38.43" ry="38.43"/>
<text text-anchor="middle" x="993.46" y="-237.8" font-family="Arial" font-size="9.00">CONNECTED</text>
</g>
<!-- transition_ac3478d69a3c81fa62e60f5c3696165a4e5e6ac4 -->
<g id="node16" class="node">
<title>transition_ac3478d69a3c81fa62e60f5c3696165a4e5e6ac4</title>
<polygon fill="none" stroke="#333333" points="1199.67,-415.5 1094.67,-415.5 1094.67,-310.5 1199.67,-310.5 1199.67,-415.5"/>
<text text-anchor="middle" x="1147.17" y="-360.8" font-family="Arial" font-size="9.00">TO_NOT_QUALIFIED</text>
</g>
<!-- place_073afc98bdd09cb2a4d2bd868a900fcbf6e25550&#45;&gt;transition_ac3478d69a3c81fa62e60f5c3696165a4e5e6ac4 -->
<g id="edge11" class="edge">
<title>place_073afc98bdd09cb2a4d2bd868a900fcbf6e25550&#45;&gt;transition_ac3478d69a3c81fa62e60f5c3696165a4e5e6ac4</title>
<path fill="none" stroke="#333333" d="M1023.09,-264.72C1036.51,-276.19 1052.8,-289.93 1067.67,-302 1074.91,-307.87 1082.59,-313.98 1090.2,-319.97"/>
<polygon fill="#333333" stroke="#333333" points="1089.4,-321.57 1094.41,-323.28 1091.56,-318.81 1089.4,-321.57"/>
</g>
<!-- transition_c1dfd96eea8cc2b62785275bca38ac261256e278 -->
<g id="node17" class="node">
<title>transition_c1dfd96eea8cc2b62785275bca38ac261256e278</title>
<polygon fill="none" stroke="#333333" points="1199.67,-292.5 1094.67,-292.5 1094.67,-187.5 1199.67,-187.5 1199.67,-292.5"/>
<text text-anchor="middle" x="1147.17" y="-237.8" font-family="Arial" font-size="9.00">TO_LOST_CONTACT</text>
</g>
<!-- place_073afc98bdd09cb2a4d2bd868a900fcbf6e25550&#45;&gt;transition_c1dfd96eea8cc2b62785275bca38ac261256e278 -->
<g id="edge13" class="edge">
<title>place_073afc98bdd09cb2a4d2bd868a900fcbf6e25550&#45;&gt;transition_c1dfd96eea8cc2b62785275bca38ac261256e278</title>
<path fill="none" stroke="#333333" d="M1031.96,-240C1049.21,-240 1070.04,-240 1089.17,-240"/>
<polygon fill="#333333" stroke="#333333" points="1089.51,-241.75 1094.51,-240 1089.51,-238.25 1089.51,-241.75"/>
</g>
<!-- transition_902ba3cda1883801594b6e1b452790cc53948fda -->
<g id="node18" class="node">
<title>transition_902ba3cda1883801594b6e1b452790cc53948fda</title>
<polygon fill="none" stroke="#333333" points="1226.67,-169.5 1067.67,-169.5 1067.67,-10.5 1226.67,-10.5 1226.67,-169.5"/>
<text text-anchor="middle" x="1147.17" y="-87.8" font-family="Arial" font-size="9.00">TO_SCHEDULED_APPOINTMENT</text>
</g>
<!-- place_073afc98bdd09cb2a4d2bd868a900fcbf6e25550&#45;&gt;transition_902ba3cda1883801594b6e1b452790cc53948fda -->
<g id="edge15" class="edge">
<title>place_073afc98bdd09cb2a4d2bd868a900fcbf6e25550&#45;&gt;transition_902ba3cda1883801594b6e1b452790cc53948fda</title>
<path fill="none" stroke="#333333" d="M1021.23,-213.53C1033.31,-201.59 1048.3,-186.77 1063.65,-171.59"/>
<polygon fill="#333333" stroke="#333333" points="1065.23,-172.49 1067.56,-167.73 1062.77,-170 1065.23,-172.49"/>
</g>
<!-- place_6803270e3eaa21c3513b8a72b82264d18e88f15f -->
<g id="node4" class="node">
<title>place_6803270e3eaa21c3513b8a72b82264d18e88f15f</title>
<ellipse fill="none" stroke="#333333" cx="38.73" cy="-265" rx="37.9" ry="37.9"/>
<text text-anchor="middle" x="38.73" y="-262.8" font-family="Arial" font-size="9.00">IN_CONTACT</text>
</g>
<!-- place_f524ae66cec6d7303f775b5b513f24cfac7fae32 -->
<g id="node5" class="node">
<title>place_f524ae66cec6d7303f775b5b513f24cfac7fae32</title>
<ellipse fill="none" stroke="#333333" cx="1336" cy="-240" rx="45.39" ry="45.39"/>
<text text-anchor="middle" x="1336" y="-237.8" font-family="Arial" font-size="9.00">LOST_CONTACT</text>
</g>
<!-- place_66aabd91fc41cc4635aad94dc77d93a0e2eac67b -->
<g id="node6" class="node">
<title>place_66aabd91fc41cc4635aad94dc77d93a0e2eac67b</title>
<ellipse fill="none" stroke="#333333" cx="257.46" cy="-203" rx="36" ry="36"/>
<text text-anchor="middle" x="257.46" y="-200.8" font-family="Arial" font-size="9.00">NEW</text>
</g>
<!-- transition_356a192b7913b04c54574d18c28d46e6395428ab -->
<g id="node12" class="node">
<title>transition_356a192b7913b04c54574d18c28d46e6395428ab</title>
<polygon fill="none" stroke="#333333" points="422.46,-185.5 329.46,-185.5 329.46,-92.5 422.46,-92.5 422.46,-185.5"/>
<text text-anchor="middle" x="375.96" y="-136.8" font-family="Arial" font-size="9.00">TO_NEEDS_DATA</text>
</g>
<!-- place_66aabd91fc41cc4635aad94dc77d93a0e2eac67b&#45;&gt;transition_356a192b7913b04c54574d18c28d46e6395428ab -->
<g id="edge3" class="edge">
<title>place_66aabd91fc41cc4635aad94dc77d93a0e2eac67b&#45;&gt;transition_356a192b7913b04c54574d18c28d46e6395428ab</title>
<path fill="none" stroke="#333333" d="M289.37,-186.02C300.3,-180.01 312.89,-173.1 324.99,-166.45"/>
<polygon fill="#333333" stroke="#333333" points="325.88,-167.96 329.42,-164.02 324.19,-164.89 325.88,-167.96"/>
</g>
<!-- transition_da4b9237bacccdf19c0760cab7aec4a8359010b0 -->
<g id="node13" class="node">
<title>transition_da4b9237bacccdf19c0760cab7aec4a8359010b0</title>
<polygon fill="none" stroke="#333333" points="411.96,-276 339.96,-276 339.96,-204 411.96,-204 411.96,-276"/>
<text text-anchor="middle" x="375.96" y="-237.8" font-family="Arial" font-size="9.00">TO_ACTIVE</text>
</g>
<!-- place_66aabd91fc41cc4635aad94dc77d93a0e2eac67b&#45;&gt;transition_da4b9237bacccdf19c0760cab7aec4a8359010b0 -->
<g id="edge5" class="edge">
<title>place_66aabd91fc41cc4635aad94dc77d93a0e2eac67b&#45;&gt;transition_da4b9237bacccdf19c0760cab7aec4a8359010b0</title>
<path fill="none" stroke="#333333" d="M292.16,-213.7C305.44,-217.92 320.82,-222.8 334.68,-227.21"/>
<polygon fill="#333333" stroke="#333333" points="334.42,-228.96 339.72,-228.81 335.48,-225.63 334.42,-228.96"/>
</g>
<!-- place_33c32d671529820b4a3c4c7cffdda839b35309e6 -->
<g id="node7" class="node">
<title>place_33c32d671529820b4a3c4c7cffdda839b35309e6</title>
<ellipse fill="none" stroke="#333333" cx="1336" cy="-363" rx="45.39" ry="45.39"/>
<text text-anchor="middle" x="1336" y="-360.8" font-family="Arial" font-size="9.00">NOT_QUALIFIED</text>
</g>
<!-- place_539e241c6f3e5b8ecbcdbc513b219f40229ceffb -->
<g id="node8" class="node">
<title>place_539e241c6f3e5b8ecbcdbc513b219f40229ceffb</title>
<ellipse fill="none" stroke="#333333" cx="748.35" cy="-240" rx="43.79" ry="43.79"/>
<text text-anchor="middle" x="748.35" y="-237.8" font-family="Arial" font-size="9.00">REACHED_OUT</text>
</g>
<!-- transition_1b6453892473a467d07372d45eb05abc2031647a -->
<g id="node15" class="node">
<title>transition_1b6453892473a467d07372d45eb05abc2031647a</title>
<polygon fill="none" stroke="#333333" points="919.25,-285.5 828.25,-285.5 828.25,-194.5 919.25,-194.5 919.25,-285.5"/>
<text text-anchor="middle" x="873.75" y="-237.8" font-family="Arial" font-size="9.00">TO_CONNECTED</text>
</g>
<!-- place_539e241c6f3e5b8ecbcdbc513b219f40229ceffb&#45;&gt;transition_1b6453892473a467d07372d45eb05abc2031647a -->
<g id="edge9" class="edge">
<title>place_539e241c6f3e5b8ecbcdbc513b219f40229ceffb&#45;&gt;transition_1b6453892473a467d07372d45eb05abc2031647a</title>
<path fill="none" stroke="#333333" d="M792.51,-240C802.33,-240 812.85,-240 822.93,-240"/>
<polygon fill="#333333" stroke="#333333" points="823.15,-241.75 828.15,-240 823.15,-238.25 823.15,-241.75"/>
</g>
<!-- place_3efade5edadc08f27fff7229eededf488699c9ed -->
<g id="node9" class="node">
<title>place_3efade5edadc08f27fff7229eededf488699c9ed</title>
<ellipse fill="none" stroke="#333333" cx="1336" cy="-90" rx="73.16" ry="73.16"/>
<text text-anchor="middle" x="1336" y="-87.8" font-family="Arial" font-size="9.00">SCHEDULED_APPOINTMENT</text>
</g>
<!-- transition_fe5dbbcea5ce7e2988b8c69bcfdfde8904aabc1f -->
<g id="node19" class="node">
<title>transition_fe5dbbcea5ce7e2988b8c69bcfdfde8904aabc1f</title>
<polygon fill="none" stroke="#333333" points="1625.33,-180 1445.33,-180 1445.33,0 1625.33,0 1625.33,-180"/>
<text text-anchor="middle" x="1535.33" y="-87.8" font-family="Arial" font-size="9.00">TO_STATUS_SCHEDULED_NO_SHOW</text>
</g>
<!-- place_3efade5edadc08f27fff7229eededf488699c9ed&#45;&gt;transition_fe5dbbcea5ce7e2988b8c69bcfdfde8904aabc1f -->
<g id="edge17" class="edge">
<title>place_3efade5edadc08f27fff7229eededf488699c9ed&#45;&gt;transition_fe5dbbcea5ce7e2988b8c69bcfdfde8904aabc1f</title>
<path fill="none" stroke="#333333" d="M1409.36,-90C1419.38,-90 1429.79,-90 1440.13,-90"/>
<polygon fill="#333333" stroke="#333333" points="1440.21,-91.75 1445.21,-90 1440.21,-88.25 1440.21,-91.75"/>
</g>
<!-- place_f3d255e8052650ce6572b9c884633371e0231e5b -->
<g id="node10" class="node">
<title>place_f3d255e8052650ce6572b9c884633371e0231e5b</title>
<ellipse fill="none" stroke="#333333" cx="1745.5" cy="-90" rx="84.35" ry="84.35"/>
<text text-anchor="middle" x="1745.5" y="-87.8" font-family="Arial" font-size="9.00">STATUS_SCHEDULED_NO_SHOW</text>
</g>
<!-- transition_b6589fc6ab0dc82cf12099d1c2d40ab994e8410c&#45;&gt;place_66aabd91fc41cc4635aad94dc77d93a0e2eac67b -->
<g id="edge2" class="edge">
<title>transition_b6589fc6ab0dc82cf12099d1c2d40ab994e8410c&#45;&gt;place_66aabd91fc41cc4635aad94dc77d93a0e2eac67b</title>
<path fill="none" stroke="#333333" d="M185.46,-203C195.22,-203 205.9,-203 215.94,-203"/>
<polygon fill="#333333" stroke="#333333" points="216.13,-204.75 221.13,-203 216.13,-201.25 216.13,-204.75"/>
</g>
<!-- transition_356a192b7913b04c54574d18c28d46e6395428ab&#45;&gt;place_8f02cf4ddc965c8ad367f1b1a0368a8920f5db3d -->
<g id="edge4" class="edge">
<title>transition_356a192b7913b04c54574d18c28d46e6395428ab&#45;&gt;place_8f02cf4ddc965c8ad367f1b1a0368a8920f5db3d</title>
<path fill="none" stroke="#333333" d="M329,-140.92C276.67,-143.43 188.67,-148.66 113.46,-158 103.26,-159.27 92.33,-160.99 82.09,-162.77"/>
<polygon fill="#333333" stroke="#333333" points="81.75,-161.05 77.13,-163.64 82.35,-164.5 81.75,-161.05"/>
</g>
<!-- transition_da4b9237bacccdf19c0760cab7aec4a8359010b0&#45;&gt;place_c72633f673ef54769f56bbaf78d2baf4858bf7c3 -->
<g id="edge6" class="edge">
<title>transition_da4b9237bacccdf19c0760cab7aec4a8359010b0&#45;&gt;place_c72633f673ef54769f56bbaf78d2baf4858bf7c3</title>
<path fill="none" stroke="#333333" d="M412.23,-240C425.12,-240 439.79,-240 453.09,-240"/>
<polygon fill="#333333" stroke="#333333" points="453.31,-241.75 458.31,-240 453.31,-238.25 453.31,-241.75"/>
</g>
<!-- transition_77de68daecd823babbb58edb1c8e14d7106e83bb&#45;&gt;place_539e241c6f3e5b8ecbcdbc513b219f40229ceffb -->
<g id="edge8" class="edge">
<title>transition_77de68daecd823babbb58edb1c8e14d7106e83bb&#45;&gt;place_539e241c6f3e5b8ecbcdbc513b219f40229ceffb</title>
<path fill="none" stroke="#333333" d="M668.66,-240C678.65,-240 689.13,-240 699.05,-240"/>
<polygon fill="#333333" stroke="#333333" points="699.19,-241.75 704.19,-240 699.19,-238.25 699.19,-241.75"/>
</g>
<!-- transition_1b6453892473a467d07372d45eb05abc2031647a&#45;&gt;place_073afc98bdd09cb2a4d2bd868a900fcbf6e25550 -->
<g id="edge10" class="edge">
<title>transition_1b6453892473a467d07372d45eb05abc2031647a&#45;&gt;place_073afc98bdd09cb2a4d2bd868a900fcbf6e25550</title>
<path fill="none" stroke="#333333" d="M919.25,-240C929.34,-240 940.03,-240 950.03,-240"/>
<polygon fill="#333333" stroke="#333333" points="950.19,-241.75 955.19,-240 950.19,-238.25 950.19,-241.75"/>
</g>
<!-- transition_ac3478d69a3c81fa62e60f5c3696165a4e5e6ac4&#45;&gt;place_33c32d671529820b4a3c4c7cffdda839b35309e6 -->
<g id="edge12" class="edge">
<title>transition_ac3478d69a3c81fa62e60f5c3696165a4e5e6ac4&#45;&gt;place_33c32d671529820b4a3c4c7cffdda839b35309e6</title>
<path fill="none" stroke="#333333" d="M1199.72,-363C1226.35,-363 1258.71,-363 1285.1,-363"/>
<polygon fill="#333333" stroke="#333333" points="1285.29,-364.75 1290.29,-363 1285.29,-361.25 1285.29,-364.75"/>
</g>
<!-- transition_c1dfd96eea8cc2b62785275bca38ac261256e278&#45;&gt;place_f524ae66cec6d7303f775b5b513f24cfac7fae32 -->
<g id="edge14" class="edge">
<title>transition_c1dfd96eea8cc2b62785275bca38ac261256e278&#45;&gt;place_f524ae66cec6d7303f775b5b513f24cfac7fae32</title>
<path fill="none" stroke="#333333" d="M1199.72,-240C1226.35,-240 1258.71,-240 1285.1,-240"/>
<polygon fill="#333333" stroke="#333333" points="1285.29,-241.75 1290.29,-240 1285.29,-238.25 1285.29,-241.75"/>
</g>
<!-- transition_902ba3cda1883801594b6e1b452790cc53948fda&#45;&gt;place_3efade5edadc08f27fff7229eededf488699c9ed -->
<g id="edge16" class="edge">
<title>transition_902ba3cda1883801594b6e1b452790cc53948fda&#45;&gt;place_3efade5edadc08f27fff7229eededf488699c9ed</title>
<path fill="none" stroke="#333333" d="M1226.86,-90C1236.97,-90 1247.31,-90 1257.4,-90"/>
<polygon fill="#333333" stroke="#333333" points="1257.65,-91.75 1262.65,-90 1257.65,-88.25 1257.65,-91.75"/>
</g>
<!-- transition_fe5dbbcea5ce7e2988b8c69bcfdfde8904aabc1f&#45;&gt;place_f3d255e8052650ce6572b9c884633371e0231e5b -->
<g id="edge18" class="edge">
<title>transition_fe5dbbcea5ce7e2988b8c69bcfdfde8904aabc1f&#45;&gt;place_f3d255e8052650ce6572b9c884633371e0231e5b</title>
<path fill="none" stroke="#333333" d="M1625.52,-90C1635.58,-90 1645.82,-90 1655.87,-90"/>
<polygon fill="#333333" stroke="#333333" points="1656.1,-91.75 1661.1,-90 1656.1,-88.25 1656.1,-91.75"/>
</g>
</g>
</svg>
