<?xml version="1.0" encoding="UTF-8" standalone="no"?>
<!DOCTYPE svg PUBLIC "-//W3C//DTD SVG 1.1//EN"
 "http://www.w3.org/Graphics/SVG/1.1/DTD/svg11.dtd">
<!-- Generated by graphviz version 2.48.0 (20210717.1556)
 -->
<!-- Title: workflow Pages: 1 -->
<svg width="944pt" height="252pt"
 viewBox="0.00 0.00 944.00 252.23" xmlns="http://www.w3.org/2000/svg" xmlns:xlink="http://www.w3.org/1999/xlink">
<g id="graph0" class="graph" transform="scale(1 1) rotate(0) translate(4 248.23)">
<title>workflow</title>
<polygon fill="white" stroke="transparent" points="-4,4 -4,-248.23 940,-248.23 940,4 -4,4"/>
<!-- place_19682bdb9185a5fa9d763d414d0443d3a0bc2456 -->
<g id="node1" class="node">
<title>place_19682bdb9185a5fa9d763d414d0443d3a0bc2456</title>
<ellipse fill="lightblue" stroke="#333333" cx="36" cy="-51" rx="36" ry="36"/>
<text text-anchor="middle" x="36" y="-48.8" font-family="Arial" font-size="9.00">Init</text>
</g>
<!-- transition_b6589fc6ab0dc82cf12099d1c2d40ab994e8410c -->
<g id="node7" class="node">
<title>transition_b6589fc6ab0dc82cf12099d1c2d40ab994e8410c</title>
<polygon fill="none" stroke="#333333" points="180,-87 108,-87 108,-15 180,-15 180,-87"/>
<text text-anchor="middle" x="144" y="-48.8" font-family="Arial" font-size="9.00">to_a</text>
</g>
<!-- place_19682bdb9185a5fa9d763d414d0443d3a0bc2456&#45;&gt;transition_b6589fc6ab0dc82cf12099d1c2d40ab994e8410c -->
<g id="edge1" class="edge">
<title>place_19682bdb9185a5fa9d763d414d0443d3a0bc2456&#45;&gt;transition_b6589fc6ab0dc82cf12099d1c2d40ab994e8410c</title>
<path fill="none" stroke="#333333" d="M72,-51C81.76,-51 92.44,-51 102.49,-51"/>
<polygon fill="#333333" stroke="#333333" points="102.67,-52.75 107.67,-51 102.67,-49.25 102.67,-52.75"/>
</g>
<!-- place_3c1bdba449213e4af39fca35550505beec3ccbdd -->
<g id="node2" class="node">
<title>place_3c1bdba449213e4af39fca35550505beec3ccbdd</title>
<ellipse fill="none" stroke="#333333" cx="252" cy="-51" rx="36" ry="36"/>
<text text-anchor="middle" x="252" y="-48.8" font-family="Arial" font-size="9.00">Place_A</text>
</g>
<!-- transition_356a192b7913b04c54574d18c28d46e6395428ab -->
<g id="node8" class="node">
<title>transition_356a192b7913b04c54574d18c28d46e6395428ab</title>
<polygon fill="none" stroke="#333333" points="396,-138 324,-138 324,-66 396,-66 396,-138"/>
<text text-anchor="middle" x="360" y="-99.8" font-family="Arial" font-size="9.00">to_b</text>
</g>
<!-- place_3c1bdba449213e4af39fca35550505beec3ccbdd&#45;&gt;transition_356a192b7913b04c54574d18c28d46e6395428ab -->
<g id="edge3" class="edge">
<title>place_3c1bdba449213e4af39fca35550505beec3ccbdd&#45;&gt;transition_356a192b7913b04c54574d18c28d46e6395428ab</title>
<path fill="none" stroke="#333333" d="M284.8,-66.3C295.58,-71.49 307.76,-77.35 319.09,-82.8"/>
<polygon fill="#333333" stroke="#333333" points="318.62,-84.51 323.89,-85.11 320.14,-81.36 318.62,-84.51"/>
</g>
<!-- transition_1b6453892473a467d07372d45eb05abc2031647a -->
<g id="node11" class="node">
<title>transition_1b6453892473a467d07372d45eb05abc2031647a</title>
<polygon fill="none" stroke="#333333" points="828,-119 756,-119 756,-47 828,-47 828,-119"/>
<text text-anchor="middle" x="792" y="-80.8" font-family="Arial" font-size="9.00">to_end</text>
</g>
<!-- place_3c1bdba449213e4af39fca35550505beec3ccbdd&#45;&gt;transition_1b6453892473a467d07372d45eb05abc2031647a -->
<g id="edge12" class="edge">
<title>place_3c1bdba449213e4af39fca35550505beec3ccbdd&#45;&gt;transition_1b6453892473a467d07372d45eb05abc2031647a</title>
<path fill="none" stroke="#333333" d="M285.78,-38.13C327.29,-23.02 401.31,0 467,0 467,0 467,0 577,0 642.76,0 659.75,-11.65 720,-38 730.55,-42.62 741.34,-48.66 751.23,-54.82"/>
<polygon fill="#333333" stroke="#333333" points="750.54,-56.45 755.7,-57.65 752.41,-53.5 750.54,-56.45"/>
</g>
<!-- place_77119d4d2c619105b99131c2ec2f2d3a8c869ac4 -->
<g id="node3" class="node">
<title>place_77119d4d2c619105b99131c2ec2f2d3a8c869ac4</title>
<ellipse fill="none" stroke="#333333" cx="468" cy="-102" rx="36" ry="36"/>
<text text-anchor="middle" x="468" y="-99.8" font-family="Arial" font-size="9.00">Place_B</text>
</g>
<!-- place_77119d4d2c619105b99131c2ec2f2d3a8c869ac4&#45;&gt;transition_356a192b7913b04c54574d18c28d46e6395428ab -->
<g id="edge4" class="edge">
<title>place_77119d4d2c619105b99131c2ec2f2d3a8c869ac4&#45;&gt;transition_356a192b7913b04c54574d18c28d46e6395428ab</title>
<path fill="none" stroke="#333333" d="M432.4,-108.37C422.37,-108.8 411.34,-108.86 401.01,-108.57"/>
<polygon fill="#333333" stroke="#333333" points="401.06,-106.82 396,-108.39 400.94,-110.32 401.06,-106.82"/>
</g>
<!-- transition_da4b9237bacccdf19c0760cab7aec4a8359010b0 -->
<g id="node9" class="node">
<title>transition_da4b9237bacccdf19c0760cab7aec4a8359010b0</title>
<polygon fill="none" stroke="#333333" points="612,-138 540,-138 540,-66 612,-66 612,-138"/>
<text text-anchor="middle" x="576" y="-99.8" font-family="Arial" font-size="9.00">to_ba</text>
</g>
<!-- place_77119d4d2c619105b99131c2ec2f2d3a8c869ac4&#45;&gt;transition_da4b9237bacccdf19c0760cab7aec4a8359010b0 -->
<g id="edge8" class="edge">
<title>place_77119d4d2c619105b99131c2ec2f2d3a8c869ac4&#45;&gt;transition_da4b9237bacccdf19c0760cab7aec4a8359010b0</title>
<path fill="none" stroke="#333333" d="M504,-102C513.76,-102 524.44,-102 534.49,-102"/>
<polygon fill="#333333" stroke="#333333" points="534.67,-103.75 539.67,-102 534.67,-100.25 534.67,-103.75"/>
</g>
<!-- transition_77de68daecd823babbb58edb1c8e14d7106e83bb -->
<g id="node10" class="node">
<title>transition_77de68daecd823babbb58edb1c8e14d7106e83bb</title>
<polygon fill="none" stroke="#333333" points="612,-228 540,-228 540,-156 612,-156 612,-228"/>
<text text-anchor="middle" x="576" y="-189.8" font-family="Arial" font-size="9.00">to_bb</text>
</g>
<!-- place_77119d4d2c619105b99131c2ec2f2d3a8c869ac4&#45;&gt;transition_77de68daecd823babbb58edb1c8e14d7106e83bb -->
<g id="edge10" class="edge">
<title>place_77119d4d2c619105b99131c2ec2f2d3a8c869ac4&#45;&gt;transition_77de68daecd823babbb58edb1c8e14d7106e83bb</title>
<path fill="none" stroke="#333333" d="M496.02,-124.94C508.03,-135.14 522.4,-147.34 535.57,-158.52"/>
<polygon fill="#333333" stroke="#333333" points="534.67,-160.05 539.62,-161.96 536.94,-157.39 534.67,-160.05"/>
</g>
<!-- place_efdf15c6390e7af93fb1ccaaf56e09b0ecbedcc6 -->
<g id="node4" class="node">
<title>place_efdf15c6390e7af93fb1ccaaf56e09b0ecbedcc6</title>
<ellipse fill="none" stroke="#333333" cx="684" cy="-83" rx="36" ry="36"/>
<text text-anchor="middle" x="684" y="-80.8" font-family="Arial" font-size="9.00">Place_BA</text>
</g>
<!-- place_efdf15c6390e7af93fb1ccaaf56e09b0ecbedcc6&#45;&gt;transition_356a192b7913b04c54574d18c28d46e6395428ab -->
<g id="edge5" class="edge">
<title>place_efdf15c6390e7af93fb1ccaaf56e09b0ecbedcc6&#45;&gt;transition_356a192b7913b04c54574d18c28d46e6395428ab</title>
<path fill="none" stroke="#333333" d="M650.79,-68.49C638.86,-63.85 625.05,-59.32 612,-57 533.23,-43.03 508.83,-34.7 432,-57 421.18,-60.14 410.43,-65.48 400.7,-71.4"/>
<polygon fill="#333333" stroke="#333333" points="399.61,-70.02 396.3,-74.16 401.46,-72.98 399.61,-70.02"/>
</g>
<!-- place_efdf15c6390e7af93fb1ccaaf56e09b0ecbedcc6&#45;&gt;transition_1b6453892473a467d07372d45eb05abc2031647a -->
<g id="edge13" class="edge">
<title>place_efdf15c6390e7af93fb1ccaaf56e09b0ecbedcc6&#45;&gt;transition_1b6453892473a467d07372d45eb05abc2031647a</title>
<path fill="none" stroke="#333333" d="M720,-83C729.76,-83 740.44,-83 750.49,-83"/>
<polygon fill="#333333" stroke="#333333" points="750.67,-84.75 755.67,-83 750.67,-81.25 750.67,-84.75"/>
</g>
<!-- place_6f76c4dd92d1c187a5ef386eb837e5b24026c9d1 -->
<g id="node5" class="node">
<title>place_6f76c4dd92d1c187a5ef386eb837e5b24026c9d1</title>
<ellipse fill="none" stroke="#333333" cx="684" cy="-192" rx="36" ry="36"/>
<text text-anchor="middle" x="684" y="-189.8" font-family="Arial" font-size="9.00">Place_BB</text>
</g>
<!-- place_6f76c4dd92d1c187a5ef386eb837e5b24026c9d1&#45;&gt;transition_356a192b7913b04c54574d18c28d46e6395428ab -->
<g id="edge6" class="edge">
<title>place_6f76c4dd92d1c187a5ef386eb837e5b24026c9d1&#45;&gt;transition_356a192b7913b04c54574d18c28d46e6395428ab</title>
<path fill="none" stroke="#333333" d="M655.78,-214.37C643.25,-223.26 627.7,-232.44 612,-237 581.27,-245.92 570.34,-247.16 540,-237 484.09,-218.28 431.67,-174.45 398.19,-141.77"/>
<polygon fill="#333333" stroke="#333333" points="399.4,-140.51 394.61,-138.25 396.94,-143 399.4,-140.51"/>
</g>
<!-- place_6f76c4dd92d1c187a5ef386eb837e5b24026c9d1&#45;&gt;transition_1b6453892473a467d07372d45eb05abc2031647a -->
<g id="edge14" class="edge">
<title>place_6f76c4dd92d1c187a5ef386eb837e5b24026c9d1&#45;&gt;transition_1b6453892473a467d07372d45eb05abc2031647a</title>
<path fill="none" stroke="#333333" d="M709.85,-166.44C722.49,-153.45 738.13,-137.36 752.3,-122.79"/>
<polygon fill="#333333" stroke="#333333" points="753.64,-123.93 755.87,-119.13 751.13,-121.49 753.64,-123.93"/>
</g>
<!-- place_6a04de10a0e04dd65437196414bce7805ee4aabe -->
<g id="node6" class="node">
<title>place_6a04de10a0e04dd65437196414bce7805ee4aabe</title>
<ellipse fill="none" stroke="#333333" cx="900" cy="-83" rx="36" ry="36"/>
<text text-anchor="middle" x="900" y="-80.8" font-family="Arial" font-size="9.00">Place_End</text>
</g>
<!-- transition_b6589fc6ab0dc82cf12099d1c2d40ab994e8410c&#45;&gt;place_3c1bdba449213e4af39fca35550505beec3ccbdd -->
<g id="edge2" class="edge">
<title>transition_b6589fc6ab0dc82cf12099d1c2d40ab994e8410c&#45;&gt;place_3c1bdba449213e4af39fca35550505beec3ccbdd</title>
<path fill="none" stroke="#333333" d="M180,-51C189.76,-51 200.44,-51 210.49,-51"/>
<polygon fill="#333333" stroke="#333333" points="210.67,-52.75 215.67,-51 210.67,-49.25 210.67,-52.75"/>
</g>
<!-- transition_356a192b7913b04c54574d18c28d46e6395428ab&#45;&gt;place_77119d4d2c619105b99131c2ec2f2d3a8c869ac4 -->
<g id="edge7" class="edge">
<title>transition_356a192b7913b04c54574d18c28d46e6395428ab&#45;&gt;place_77119d4d2c619105b99131c2ec2f2d3a8c869ac4</title>
<path fill="none" stroke="#333333" d="M396,-95.61C405.96,-95.2 416.89,-95.14 427.12,-95.44"/>
<polygon fill="#333333" stroke="#333333" points="427.34,-97.2 432.4,-95.63 427.46,-93.7 427.34,-97.2"/>
</g>
<!-- transition_da4b9237bacccdf19c0760cab7aec4a8359010b0&#45;&gt;place_efdf15c6390e7af93fb1ccaaf56e09b0ecbedcc6 -->
<g id="edge9" class="edge">
<title>transition_da4b9237bacccdf19c0760cab7aec4a8359010b0&#45;&gt;place_efdf15c6390e7af93fb1ccaaf56e09b0ecbedcc6</title>
<path fill="none" stroke="#333333" d="M612,-95.73C622.06,-93.92 633.09,-91.95 643.4,-90.1"/>
<polygon fill="#333333" stroke="#333333" points="643.78,-91.81 648.4,-89.2 643.17,-88.36 643.78,-91.81"/>
</g>
<!-- transition_77de68daecd823babbb58edb1c8e14d7106e83bb&#45;&gt;place_6f76c4dd92d1c187a5ef386eb837e5b24026c9d1 -->
<g id="edge11" class="edge">
<title>transition_77de68daecd823babbb58edb1c8e14d7106e83bb&#45;&gt;place_6f76c4dd92d1c187a5ef386eb837e5b24026c9d1</title>
<path fill="none" stroke="#333333" d="M612,-192C621.76,-192 632.44,-192 642.49,-192"/>
<polygon fill="#333333" stroke="#333333" points="642.67,-193.75 647.67,-192 642.67,-190.25 642.67,-193.75"/>
</g>
<!-- transition_1b6453892473a467d07372d45eb05abc2031647a&#45;&gt;place_6a04de10a0e04dd65437196414bce7805ee4aabe -->
<g id="edge15" class="edge">
<title>transition_1b6453892473a467d07372d45eb05abc2031647a&#45;&gt;place_6a04de10a0e04dd65437196414bce7805ee4aabe</title>
<path fill="none" stroke="#333333" d="M828,-83C837.76,-83 848.44,-83 858.49,-83"/>
<polygon fill="#333333" stroke="#333333" points="858.67,-84.75 863.67,-83 858.67,-81.25 858.67,-84.75"/>
</g>
</g>
</svg>
