<?xml version="1.0" encoding="UTF-8" standalone="no"?>
<!DOCTYPE svg PUBLIC "-//W3C//DTD SVG 1.1//EN"
 "http://www.w3.org/Graphics/SVG/1.1/DTD/svg11.dtd">
<!-- Generated by graphviz version 2.48.0 (20210717.1556)
 -->
<!-- Title: workflow Pages: 1 -->
<svg width="512pt" height="80pt"
 viewBox="0.00 0.00 512.00 80.00" xmlns="http://www.w3.org/2000/svg" xmlns:xlink="http://www.w3.org/1999/xlink">
<g id="graph0" class="graph" transform="scale(1 1) rotate(0) translate(4 76)">
<title>workflow</title>
<polygon fill="white" stroke="transparent" points="-4,4 -4,-76 508,-76 508,4 -4,4"/>
<!-- place_6dcd4ce23d88e2ee9568ba546c007c63d9131c1b -->
<g id="node1" class="node">
<title>place_6dcd4ce23d88e2ee9568ba546c007c63d9131c1b</title>
<ellipse fill="lightblue" stroke="#333333" cx="36" cy="-36" rx="36" ry="36"/>
<text text-anchor="middle" x="36" y="-33.8" font-family="Arial" font-size="9.00">A</text>
</g>
<!-- transition_b6589fc6ab0dc82cf12099d1c2d40ab994e8410c -->
<g id="node4" class="node">
<title>transition_b6589fc6ab0dc82cf12099d1c2d40ab994e8410c</title>
<polygon fill="none" stroke="#333333" points="180,-72 108,-72 108,0 180,0 180,-72"/>
<text text-anchor="middle" x="144" y="-33.8" font-family="Arial" font-size="9.00">to_b</text>
</g>
<!-- place_6dcd4ce23d88e2ee9568ba546c007c63d9131c1b&#45;&gt;transition_b6589fc6ab0dc82cf12099d1c2d40ab994e8410c -->
<g id="edge1" class="edge">
<title>place_6dcd4ce23d88e2ee9568ba546c007c63d9131c1b&#45;&gt;transition_b6589fc6ab0dc82cf12099d1c2d40ab994e8410c</title>
<path fill="none" stroke="#333333" d="M72,-36C81.76,-36 92.44,-36 102.49,-36"/>
<polygon fill="#333333" stroke="#333333" points="102.67,-37.75 107.67,-36 102.67,-34.25 102.67,-37.75"/>
</g>
<!-- place_ae4f281df5a5d0ff3cad6371f76d5c29b6d953ec -->
<g id="node2" class="node">
<title>place_ae4f281df5a5d0ff3cad6371f76d5c29b6d953ec</title>
<ellipse fill="none" stroke="#333333" cx="252" cy="-36" rx="36" ry="36"/>
<text text-anchor="middle" x="252" y="-33.8" font-family="Arial" font-size="9.00">B</text>
</g>
<!-- transition_356a192b7913b04c54574d18c28d46e6395428ab -->
<g id="node5" class="node">
<title>transition_356a192b7913b04c54574d18c28d46e6395428ab</title>
<polygon fill="none" stroke="#333333" points="396,-72 324,-72 324,0 396,0 396,-72"/>
<text text-anchor="middle" x="360" y="-33.8" font-family="Arial" font-size="9.00">to_c</text>
</g>
<!-- place_ae4f281df5a5d0ff3cad6371f76d5c29b6d953ec&#45;&gt;transition_356a192b7913b04c54574d18c28d46e6395428ab -->
<g id="edge3" class="edge">
<title>place_ae4f281df5a5d0ff3cad6371f76d5c29b6d953ec&#45;&gt;transition_356a192b7913b04c54574d18c28d46e6395428ab</title>
<path fill="none" stroke="#333333" d="M288,-36C297.76,-36 308.44,-36 318.49,-36"/>
<polygon fill="#333333" stroke="#333333" points="318.67,-37.75 323.67,-36 318.67,-34.25 318.67,-37.75"/>
</g>
<!-- place_32096c2e0eff33d844ee6d675407ace18289357d -->
<g id="node3" class="node">
<title>place_32096c2e0eff33d844ee6d675407ace18289357d</title>
<ellipse fill="none" stroke="#333333" cx="468" cy="-36" rx="36" ry="36"/>
<text text-anchor="middle" x="468" y="-33.8" font-family="Arial" font-size="9.00">C</text>
</g>
<!-- transition_b6589fc6ab0dc82cf12099d1c2d40ab994e8410c&#45;&gt;place_ae4f281df5a5d0ff3cad6371f76d5c29b6d953ec -->
<g id="edge2" class="edge">
<title>transition_b6589fc6ab0dc82cf12099d1c2d40ab994e8410c&#45;&gt;place_ae4f281df5a5d0ff3cad6371f76d5c29b6d953ec</title>
<path fill="none" stroke="#333333" d="M180,-36C189.76,-36 200.44,-36 210.49,-36"/>
<polygon fill="#333333" stroke="#333333" points="210.67,-37.75 215.67,-36 210.67,-34.25 210.67,-37.75"/>
</g>
<!-- transition_356a192b7913b04c54574d18c28d46e6395428ab&#45;&gt;place_32096c2e0eff33d844ee6d675407ace18289357d -->
<g id="edge4" class="edge">
<title>transition_356a192b7913b04c54574d18c28d46e6395428ab&#45;&gt;place_32096c2e0eff33d844ee6d675407ace18289357d</title>
<path fill="none" stroke="#333333" d="M396,-36C405.76,-36 416.44,-36 426.49,-36"/>
<polygon fill="#333333" stroke="#333333" points="426.67,-37.75 431.67,-36 426.67,-34.25 426.67,-37.75"/>
</g>
</g>
</svg>
